<svg id="visual" viewBox="0 0 4000 900" width="4000" height="900" xmlns="http://www.w3.org/2000/svg" xmlns:xlink="http://www.w3.org/1999/xlink" version="1.1"><rect x="0" y="0" width="4000" height="900" fill="#001220"></rect><path d="M0 645L55.5 652C111 659 222 673 333.2 674.3C444.3 675.7 555.7 664.3 666.8 656.8C778 649.3 889 645.7 1000 643.7C1111 641.7 1222 641.3 1333.2 653.2C1444.3 665 1555.7 689 1666.8 688.7C1778 688.3 1889 663.7 2000 653C2111 642.3 2222 645.7 2333.2 645.7C2444.3 645.7 2555.7 642.3 2666.8 652.5C2778 662.7 2889 686.3 3000 690C3111 693.7 3222 677.3 3333.2 678.2C3444.3 679 3555.7 697 3666.8 696.5C3778 696 3889 677 3944.5 667.5L4000 658L4000 901L3944.5 901C3889 901 3778 901 3666.8 901C3555.7 901 3444.3 901 3333.2 901C3222 901 3111 901 3000 901C2889 901 2778 901 2666.8 901C2555.7 901 2444.3 901 2333.2 901C2222 901 2111 901 2000 901C1889 901 1778 901 1666.8 901C1555.7 901 1444.3 901 1333.2 901C1222 901 1111 901 1000 901C889 901 778 901 666.8 901C555.7 901 444.3 901 333.2 901C222 901 111 901 55.5 901L0 901Z" fill="#fa7268"></path><path d="M0 688L55.5 699.3C111 710.7 222 733.3 333.2 732C444.3 730.7 555.7 705.3 666.8 705.8C778 706.3 889 732.7 1000 745.2C1111 757.7 1222 756.3 1333.2 750.7C1444.3 745 1555.7 735 1666.8 735.7C1778 736.3 1889 747.7 2000 746.5C2111 745.3 2222 731.7 2333.2 724.2C2444.3 716.7 2555.7 715.3 2666.8 714.8C2778 714.3 2889 714.7 3000 712.5C3111 710.3 3222 705.7 3333.2 709.5C3444.3 713.3 3555.7 725.7 3666.8 734.5C3778 743.3 3889 748.7 3944.5 751.3L4000 754L4000 901L3944.5 901C3889 901 3778 901 3666.8 901C3555.7 901 3444.3 901 3333.2 901C3222 901 3111 901 3000 901C2889 901 2778 901 2666.8 901C2555.7 901 2444.3 901 2333.2 901C2222 901 2111 901 2000 901C1889 901 1778 901 1666.8 901C1555.7 901 1444.3 901 1333.2 901C1222 901 1111 901 1000 901C889 901 778 901 666.8 901C555.7 901 444.3 901 333.2 901C222 901 111 901 55.5 901L0 901Z" fill="#eb5967"></path><path d="M0 793L55.5 786.8C111 780.7 222 768.3 333.2 765C444.3 761.7 555.7 767.3 666.8 775C778 782.7 889 792.3 1000 789C1111 785.7 1222 769.3 1333.2 767C1444.3 764.7 1555.7 776.3 1666.8 781.5C1778 786.7 1889 785.3 2000 777.8C2111 770.3 2222 756.7 2333.2 757.5C2444.3 758.3 2555.7 773.7 2666.8 781.8C2778 790 2889 791 3000 790.2C3111 789.3 3222 786.7 3333.2 785.8C3444.3 785 3555.7 786 3666.8 787.3C3778 788.7 3889 790.3 3944.5 791.2L4000 792L4000 901L3944.5 901C3889 901 3778 901 3666.8 901C3555.7 901 3444.3 901 3333.2 901C3222 901 3111 901 3000 901C2889 901 2778 901 2666.8 901C2555.7 901 2444.3 901 2333.2 901C2222 901 2111 901 2000 901C1889 901 1778 901 1666.8 901C1555.7 901 1444.3 901 1333.2 901C1222 901 1111 901 1000 901C889 901 778 901 666.8 901C555.7 901 444.3 901 333.2 901C222 901 111 901 55.5 901L0 901Z" fill="#da3f67"></path><path d="M0 850L55.5 841.8C111 833.7 222 817.3 333.2 811.3C444.3 805.3 555.7 809.7 666.8 818C778 826.3 889 838.7 1000 836.3C1111 834 1222 817 1333.2 812.5C1444.3 808 1555.7 816 1666.8 819.3C1778 822.7 1889 821.3 2000 818.8C2111 816.3 2222 812.7 2333.2 817C2444.3 821.3 2555.7 833.7 2666.8 840.7C2778 847.7 2889 849.3 3000 848.7C3111 848 3222 845 3333.2 842.5C3444.3 840 3555.7 838 3666.8 832.3C3778 826.7 3889 817.3 3944.5 812.7L4000 808L4000 901L3944.5 901C3889 901 3778 901 3666.8 901C3555.7 901 3444.3 901 3333.2 901C3222 901 3111 901 3000 901C2889 901 2778 901 2666.8 901C2555.7 901 2444.3 901 2333.2 901C2222 901 2111 901 2000 901C1889 901 1778 901 1666.8 901C1555.7 901 1444.3 901 1333.2 901C1222 901 1111 901 1000 901C889 901 778 901 666.8 901C555.7 901 444.3 901 333.2 901C222 901 111 901 55.5 901L0 901Z" fill="#c62368"></path></svg>