<svg id="visual" viewBox="0 0 4000 900" width="4000" height="900" xmlns="http://www.w3.org/2000/svg" xmlns:xlink="http://www.w3.org/1999/xlink" version="1.1"><rect x="0" y="0" width="4000" height="900" fill="#001220"></rect><path d="M0 772L55.5 775.5C111 779 222 786 333.2 786.7C444.3 787.3 555.7 781.7 666.8 777.8C778 774 889 772 1000 771C1111 770 1222 770 1333.2 776C1444.3 782 1555.7 794 1666.8 793.8C1778 793.7 1889 781.3 2000 776C2111 770.7 2222 772.3 2333.2 772.3C2444.3 772.3 2555.7 770.7 2666.8 775.8C2778 781 2889 793 3000 794.8C3111 796.7 3222 788.3 3333.2 788.7C3444.3 789 3555.7 798 3666.8 797.8C3778 797.7 3889 788.3 3944.5 783.7L4000 779L4000 901L3944.5 901C3889 901 3778 901 3666.8 901C3555.7 901 3444.3 901 3333.2 901C3222 901 3111 901 3000 901C2889 901 2778 901 2666.8 901C2555.7 901 2444.3 901 2333.2 901C2222 901 2111 901 2000 901C1889 901 1778 901 1666.8 901C1555.7 901 1444.3 901 1333.2 901C1222 901 1111 901 1000 901C889 901 778 901 666.8 901C555.7 901 444.3 901 333.2 901C222 901 111 901 55.5 901L0 901Z" fill="#fa7268"></path><path d="M0 794L55.5 799.7C111 805.3 222 816.7 333.2 816C444.3 815.3 555.7 802.7 666.8 802.8C778 803 889 816 1000 822.2C1111 828.3 1222 827.7 1333.2 824.8C1444.3 822 1555.7 817 1666.8 817.3C1778 817.7 1889 823.3 2000 822.7C2111 822 2222 815 2333.2 811.3C2444.3 807.7 2555.7 807.3 2666.8 807.2C2778 807 2889 807 3000 805.8C3111 804.7 3222 802.3 3333.2 804.3C3444.3 806.3 3555.7 812.7 3666.8 817C3778 821.3 3889 823.7 3944.5 824.8L4000 826L4000 901L3944.5 901C3889 901 3778 901 3666.8 901C3555.7 901 3444.3 901 3333.2 901C3222 901 3111 901 3000 901C2889 901 2778 901 2666.8 901C2555.7 901 2444.3 901 2333.2 901C2222 901 2111 901 2000 901C1889 901 1778 901 1666.8 901C1555.7 901 1444.3 901 1333.2 901C1222 901 1111 901 1000 901C889 901 778 901 666.8 901C555.7 901 444.3 901 333.2 901C222 901 111 901 55.5 901L0 901Z" fill="#eb5967"></path><path d="M0 846L55.5 842.8C111 839.7 222 833.3 333.2 831.7C444.3 830 555.7 833 666.8 837C778 841 889 846 1000 844.3C1111 842.7 1222 834.3 1333.2 833.2C1444.3 832 1555.7 838 1666.8 840.7C1778 843.3 1889 842.7 2000 838.8C2111 835 2222 828 2333.2 828.3C2444.3 828.7 2555.7 836.3 2666.8 840.5C2778 844.7 2889 845.3 3000 845C3111 844.7 3222 843.3 3333.2 842.8C3444.3 842.3 3555.7 842.7 3666.8 843.3C3778 844 3889 845 3944.5 845.5L4000 846L4000 901L3944.5 901C3889 901 3778 901 3666.8 901C3555.7 901 3444.3 901 3333.2 901C3222 901 3111 901 3000 901C2889 901 2778 901 2666.8 901C2555.7 901 2444.3 901 2333.2 901C2222 901 2111 901 2000 901C1889 901 1778 901 1666.8 901C1555.7 901 1444.3 901 1333.2 901C1222 901 1111 901 1000 901C889 901 778 901 666.8 901C555.7 901 444.3 901 333.2 901C222 901 111 901 55.5 901L0 901Z" fill="#da3f67"></path><path d="M0 874L55.5 870C111 866 222 858 333.2 855.2C444.3 852.3 555.7 854.7 666.8 858.8C778 863 889 869 1000 867.8C1111 866.7 1222 858.3 1333.2 856C1444.3 853.7 1555.7 857.3 1666.8 858.8C1778 860.3 1889 859.7 2000 858.5C2111 857.3 2222 855.7 2333.2 857.8C2444.3 860 2555.7 866 2666.8 869.5C2778 873 2889 874 3000 873.8C3111 873.7 3222 872.3 3333.2 871C3444.3 869.7 3555.7 868.3 3666.8 865.5C3778 862.7 3889 858.3 3944.5 856.2L4000 854L4000 901L3944.5 901C3889 901 3778 901 3666.8 901C3555.7 901 3444.3 901 3333.2 901C3222 901 3111 901 3000 901C2889 901 2778 901 2666.8 901C2555.7 901 2444.3 901 2333.2 901C2222 901 2111 901 2000 901C1889 901 1778 901 1666.8 901C1555.7 901 1444.3 901 1333.2 901C1222 901 1111 901 1000 901C889 901 778 901 666.8 901C555.7 901 444.3 901 333.2 901C222 901 111 901 55.5 901L0 901Z" fill="#c62368"></path></svg>