<svg id="visual" viewBox="0 0 4000 900" width="4000" height="900" xmlns="http://www.w3.org/2000/svg" xmlns:xlink="http://www.w3.org/1999/xlink" version="1.1"><rect x="0" y="0" width="4000" height="900" fill="#001220"></rect><path d="M0 519L55.5 529.3C111 539.7 222 560.3 333.2 562.2C444.3 564 555.7 547 666.8 535.7C778 524.3 889 518.7 1000 515.7C1111 512.7 1222 512.3 1333.2 530.2C1444.3 548 1555.7 584 1666.8 583.7C1778 583.3 1889 546.7 2000 530.7C2111 514.7 2222 519.3 2333.2 519.2C2444.3 519 2555.7 514 2666.8 529.3C2778 544.7 2889 580.3 3000 585.8C3111 591.3 3222 566.7 3333.2 567.8C3444.3 569 3555.7 596 3666.8 595.3C3778 594.7 3889 566.3 3944.5 552.2L4000 538L4000 901L3944.5 901C3889 901 3778 901 3666.8 901C3555.7 901 3444.3 901 3333.2 901C3222 901 3111 901 3000 901C2889 901 2778 901 2666.8 901C2555.7 901 2444.3 901 2333.2 901C2222 901 2111 901 2000 901C1889 901 1778 901 1666.8 901C1555.7 901 1444.3 901 1333.2 901C1222 901 1111 901 1000 901C889 901 778 901 666.8 901C555.7 901 444.3 901 333.2 901C222 901 111 901 55.5 901L0 901Z" fill="#fa7268"></path><path d="M0 583L55.5 600C111 617 222 651 333.2 649C444.3 647 555.7 609 666.8 609.8C778 610.7 889 650.3 1000 669.2C1111 688 1222 686 1333.2 677.5C1444.3 669 1555.7 654 1666.8 655C1778 656 1889 673 2000 671C2111 669 2222 648 2333.2 636.7C2444.3 625.3 2555.7 623.7 2666.8 622.8C2778 622 2889 622 3000 618.7C3111 615.3 3222 608.7 3333.2 614.7C3444.3 620.7 3555.7 639.3 3666.8 652.5C3778 665.7 3889 673.3 3944.5 677.2L4000 681L4000 901L3944.5 901C3889 901 3778 901 3666.8 901C3555.7 901 3444.3 901 3333.2 901C3222 901 3111 901 3000 901C2889 901 2778 901 2666.8 901C2555.7 901 2444.3 901 2333.2 901C2222 901 2111 901 2000 901C1889 901 1778 901 1666.8 901C1555.7 901 1444.3 901 1333.2 901C1222 901 1111 901 1000 901C889 901 778 901 666.8 901C555.7 901 444.3 901 333.2 901C222 901 111 901 55.5 901L0 901Z" fill="#eb5967"></path><path d="M0 740L55.5 730.7C111 721.3 222 702.7 333.2 697.7C444.3 692.7 555.7 701.3 666.8 713C778 724.7 889 739.3 1000 734.3C1111 729.3 1222 704.7 1333.2 701.2C1444.3 697.7 1555.7 715.3 1666.8 723.2C1778 731 1889 729 2000 717.7C2111 706.3 2222 685.7 2333.2 687C2444.3 688.3 2555.7 711.7 2666.8 724C2778 736.3 2889 737.7 3000 736.3C3111 735 3222 731 3333.2 729.7C3444.3 728.3 3555.7 729.7 3666.8 731.7C3778 733.7 3889 736.3 3944.5 737.7L4000 739L4000 901L3944.5 901C3889 901 3778 901 3666.8 901C3555.7 901 3444.3 901 3333.2 901C3222 901 3111 901 3000 901C2889 901 2778 901 2666.8 901C2555.7 901 2444.3 901 2333.2 901C2222 901 2111 901 2000 901C1889 901 1778 901 1666.8 901C1555.7 901 1444.3 901 1333.2 901C1222 901 1111 901 1000 901C889 901 778 901 666.8 901C555.7 901 444.3 901 333.2 901C222 901 111 901 55.5 901L0 901Z" fill="#da3f67"></path><path d="M0 825L55.5 812.8C111 800.7 222 776.3 333.2 767.5C444.3 758.7 555.7 765.3 666.8 777.7C778 790 889 808 1000 804.5C1111 801 1222 776 1333.2 769.3C1444.3 762.7 1555.7 774.3 1666.8 779.2C1778 784 1889 782 2000 778.3C2111 774.7 2222 769.3 2333.2 775.8C2444.3 782.3 2555.7 800.7 2666.8 811.2C2778 821.7 2889 824.3 3000 823.5C3111 822.7 3222 818.3 3333.2 814.5C3444.3 810.7 3555.7 807.3 3666.8 798.8C3778 790.3 3889 776.7 3944.5 769.8L4000 763L4000 901L3944.5 901C3889 901 3778 901 3666.8 901C3555.7 901 3444.3 901 3333.2 901C3222 901 3111 901 3000 901C2889 901 2778 901 2666.8 901C2555.7 901 2444.3 901 2333.2 901C2222 901 2111 901 2000 901C1889 901 1778 901 1666.8 901C1555.7 901 1444.3 901 1333.2 901C1222 901 1111 901 1000 901C889 901 778 901 666.8 901C555.7 901 444.3 901 333.2 901C222 901 111 901 55.5 901L0 901Z" fill="#c62368"></path></svg>