<svg id="visual" viewBox="0 0 4000 900" width="4000" height="900" xmlns="http://www.w3.org/2000/svg" xmlns:xlink="http://www.w3.org/1999/xlink" version="1.1"><rect x="0" y="0" width="4000" height="900" fill="#001220"></rect><path d="M0 392L55.5 405.8C111 419.7 222 447.3 333.2 449.8C444.3 452.3 555.7 429.7 666.8 414.5C778 399.3 889 391.7 1000 387.7C1111 383.7 1222 383.3 1333.2 407.2C1444.3 431 1555.7 479 1666.8 478.5C1778 478 1889 429 2000 407.7C2111 386.3 2222 392.7 2333.2 392.5C2444.3 392.3 2555.7 385.7 2666.8 406.2C2778 426.7 2889 474.3 3000 481.7C3111 489 3222 456 3333.2 457.5C3444.3 459 3555.7 495 3666.8 494C3778 493 3889 455 3944.5 436L4000 417L4000 901L3944.5 901C3889 901 3778 901 3666.8 901C3555.7 901 3444.3 901 3333.2 901C3222 901 3111 901 3000 901C2889 901 2778 901 2666.8 901C2555.7 901 2444.3 901 2333.2 901C2222 901 2111 901 2000 901C1889 901 1778 901 1666.8 901C1555.7 901 1444.3 901 1333.2 901C1222 901 1111 901 1000 901C889 901 778 901 666.8 901C555.7 901 444.3 901 333.2 901C222 901 111 901 55.5 901L0 901Z" fill="#fa7268"></path><path d="M0 478L55.5 500.5C111 523 222 568 333.2 565.3C444.3 562.7 555.7 512.3 666.8 513.5C778 514.7 889 567.3 1000 592.3C1111 617.3 1222 614.7 1333.2 603.3C1444.3 592 1555.7 572 1666.8 573.3C1778 574.7 1889 597.3 2000 594.8C2111 592.3 2222 564.7 2333.2 549.7C2444.3 534.7 2555.7 532.3 2666.8 531.2C2778 530 2889 530 3000 525.5C3111 521 3222 512 3333.2 519.8C3444.3 527.7 3555.7 552.3 3666.8 570C3778 587.7 3889 598.3 3944.5 603.7L4000 609L4000 901L3944.5 901C3889 901 3778 901 3666.8 901C3555.7 901 3444.3 901 3333.2 901C3222 901 3111 901 3000 901C2889 901 2778 901 2666.8 901C2555.7 901 2444.3 901 2333.2 901C2222 901 2111 901 2000 901C1889 901 1778 901 1666.8 901C1555.7 901 1444.3 901 1333.2 901C1222 901 1111 901 1000 901C889 901 778 901 666.8 901C555.7 901 444.3 901 333.2 901C222 901 111 901 55.5 901L0 901Z" fill="#eb5967"></path><path d="M0 686L55.5 673.7C111 661.3 222 636.7 333.2 630.2C444.3 623.7 555.7 635.3 666.8 651C778 666.7 889 686.3 1000 679.7C1111 673 1222 640 1333.2 635.3C1444.3 630.7 1555.7 654.3 1666.8 664.7C1778 675 1889 672 2000 656.7C2111 641.3 2222 613.7 2333.2 615.5C2444.3 617.3 2555.7 648.7 2666.8 665.2C2778 681.7 2889 683.3 3000 681.5C3111 679.7 3222 674.3 3333.2 672.7C3444.3 671 3555.7 673 3666.8 675.7C3778 678.3 3889 681.7 3944.5 683.3L4000 685L4000 901L3944.5 901C3889 901 3778 901 3666.8 901C3555.7 901 3444.3 901 3333.2 901C3222 901 3111 901 3000 901C2889 901 2778 901 2666.8 901C2555.7 901 2444.3 901 2333.2 901C2222 901 2111 901 2000 901C1889 901 1778 901 1666.8 901C1555.7 901 1444.3 901 1333.2 901C1222 901 1111 901 1000 901C889 901 778 901 666.8 901C555.7 901 444.3 901 333.2 901C222 901 111 901 55.5 901L0 901Z" fill="#da3f67"></path><path d="M0 801L55.5 784.7C111 768.3 222 735.7 333.2 723.8C444.3 712 555.7 721 666.8 737.5C778 754 889 778 1000 773.3C1111 768.7 1222 735.3 1333.2 726.3C1444.3 717.3 1555.7 732.7 1666.8 739.2C1778 745.7 1889 743.3 2000 738.5C2111 733.7 2222 726.3 2333.2 734.8C2444.3 743.3 2555.7 767.7 2666.8 781.7C2778 795.7 2889 799.3 3000 798.3C3111 797.3 3222 791.7 3333.2 786.7C3444.3 781.7 3555.7 777.3 3666.8 766C3778 754.7 3889 736.3 3944.5 727.2L4000 718L4000 901L3944.5 901C3889 901 3778 901 3666.8 901C3555.7 901 3444.3 901 3333.2 901C3222 901 3111 901 3000 901C2889 901 2778 901 2666.8 901C2555.7 901 2444.3 901 2333.2 901C2222 901 2111 901 2000 901C1889 901 1778 901 1666.8 901C1555.7 901 1444.3 901 1333.2 901C1222 901 1111 901 1000 901C889 901 778 901 666.8 901C555.7 901 444.3 901 333.2 901C222 901 111 901 55.5 901L0 901Z" fill="#c62368"></path></svg>