<svg id="visual" viewBox="0 0 4000 900" width="4000" height="900" xmlns="http://www.w3.org/2000/svg" xmlns:xlink="http://www.w3.org/1999/xlink" version="1.1"><rect x="0" y="0" width="4000" height="900" fill="#001220"></rect><path d="M0 265L55.5 282.3C111 299.7 222 334.3 333.2 337.5C444.3 340.7 555.7 312.3 666.8 293.5C778 274.7 889 265.3 1000 260.3C1111 255.3 1222 254.7 1333.2 284.3C1444.3 314 1555.7 374 1666.8 373.3C1778 372.7 1889 311.3 2000 284.7C2111 258 2222 266 2333.2 265.8C2444.3 265.7 2555.7 257.3 2666.8 282.8C2778 308.3 2889 367.7 3000 376.8C3111 386 3222 345 3333.2 347C3444.3 349 3555.7 394 3666.8 392.8C3778 391.7 3889 344.3 3944.5 320.7L4000 297L4000 901L3944.5 901C3889 901 3778 901 3666.8 901C3555.7 901 3444.3 901 3333.2 901C3222 901 3111 901 3000 901C2889 901 2778 901 2666.8 901C2555.7 901 2444.3 901 2333.2 901C2222 901 2111 901 2000 901C1889 901 1778 901 1666.8 901C1555.7 901 1444.3 901 1333.2 901C1222 901 1111 901 1000 901C889 901 778 901 666.8 901C555.7 901 444.3 901 333.2 901C222 901 111 901 55.5 901L0 901Z" fill="#fa7268"></path><path d="M0 373L55.5 401.2C111 429.3 222 485.7 333.2 482.3C444.3 479 555.7 416 666.8 417.3C778 418.7 889 484.3 1000 515.5C1111 546.7 1222 543.3 1333.2 529.2C1444.3 515 1555.7 490 1666.8 491.7C1778 493.3 1889 521.7 2000 518.5C2111 515.3 2222 480.7 2333.2 461.8C2444.3 443 2555.7 440 2666.8 438.7C2778 437.3 2889 437.7 3000 432.2C3111 426.7 3222 415.3 3333.2 425.2C3444.3 435 3555.7 466 3666.8 488C3778 510 3889 523 3944.5 529.5L4000 536L4000 901L3944.5 901C3889 901 3778 901 3666.8 901C3555.7 901 3444.3 901 3333.2 901C3222 901 3111 901 3000 901C2889 901 2778 901 2666.8 901C2555.7 901 2444.3 901 2333.2 901C2222 901 2111 901 2000 901C1889 901 1778 901 1666.8 901C1555.7 901 1444.3 901 1333.2 901C1222 901 1111 901 1000 901C889 901 778 901 666.8 901C555.7 901 444.3 901 333.2 901C222 901 111 901 55.5 901L0 901Z" fill="#eb5967"></path><path d="M0 633L55.5 617.7C111 602.3 222 571.7 333.2 563.5C444.3 555.3 555.7 569.7 666.8 589C778 608.3 889 632.7 1000 624.3C1111 616 1222 575 1333.2 569.2C1444.3 563.3 1555.7 592.7 1666.8 605.7C1778 618.7 1889 615.3 2000 596.3C2111 577.3 2222 542.7 2333.2 544.8C2444.3 547 2555.7 586 2666.8 606.7C2778 627.3 2889 629.7 3000 627.5C3111 625.3 3222 618.7 3333.2 616.3C3444.3 614 3555.7 616 3666.8 619.3C3778 622.7 3889 627.3 3944.5 629.7L4000 632L4000 901L3944.5 901C3889 901 3778 901 3666.8 901C3555.7 901 3444.3 901 3333.2 901C3222 901 3111 901 3000 901C2889 901 2778 901 2666.8 901C2555.7 901 2444.3 901 2333.2 901C2222 901 2111 901 2000 901C1889 901 1778 901 1666.8 901C1555.7 901 1444.3 901 1333.2 901C1222 901 1111 901 1000 901C889 901 778 901 666.8 901C555.7 901 444.3 901 333.2 901C222 901 111 901 55.5 901L0 901Z" fill="#da3f67"></path><path d="M0 776L55.5 755.7C111 735.3 222 694.7 333.2 679.8C444.3 665 555.7 676 666.8 696.7C778 717.3 889 747.7 1000 742C1111 736.3 1222 694.7 1333.2 683.3C1444.3 672 1555.7 691 1666.8 699C1778 707 1889 704 2000 698.2C2111 692.3 2222 683.7 2333.2 694.3C2444.3 705 2555.7 735 2666.8 752.3C2778 769.7 2889 774.3 3000 773.2C3111 772 3222 765 3333.2 758.7C3444.3 752.3 3555.7 746.7 3666.8 732.3C3778 718 3889 695 3944.5 683.5L4000 672L4000 901L3944.5 901C3889 901 3778 901 3666.8 901C3555.7 901 3444.3 901 3333.2 901C3222 901 3111 901 3000 901C2889 901 2778 901 2666.8 901C2555.7 901 2444.3 901 2333.2 901C2222 901 2111 901 2000 901C1889 901 1778 901 1666.8 901C1555.7 901 1444.3 901 1333.2 901C1222 901 1111 901 1000 901C889 901 778 901 666.8 901C555.7 901 444.3 901 333.2 901C222 901 111 901 55.5 901L0 901Z" fill="#c62368"></path></svg>